<?xml version="1.0" standalone="no"?>
<!DOCTYPE svg PUBLIC "-//W3C//DTD SVG 20010904//EN"
 "http://www.w3.org/TR/2001/REC-SVG-20010904/DTD/svg10.dtd">
<svg version="1.0" xmlns="http://www.w3.org/2000/svg"
 width="512.000000pt" height="512.000000pt" viewBox="0 0 512.000000 512.000000"
 preserveAspectRatio="xMidYMid meet">

<g transform="translate(0.000000,512.000000) scale(0.100000,-0.100000)"
fill="#000000" stroke="none">
<path d="M0 2560 l0 -2560 2560 0 2560 0 0 2560 0 2560 -2560 0 -2560 0 0
-2560z m2845 2523 c66 -8 131 -19 144 -24 13 -5 42 -12 65 -14 26 -3 48 -14
60 -28 14 -16 18 -17 13 -4 -8 21 -12 21 66 -3 36 -11 67 -27 71 -35 3 -8 10
-15 16 -15 6 0 8 5 5 10 -3 6 -4 10 -1 10 10 0 163 -59 191 -74 17 -9 36 -16
43 -16 9 0 11 -7 7 -19 -7 -23 24 -44 52 -35 15 5 14 2 -4 -14 l-22 -19 44 2
c25 1 48 5 52 9 5 4 -7 6 -25 3 -26 -4 -32 -2 -30 11 2 12 -3 16 -19 15 -17
-2 -21 1 -17 15 5 14 4 14 -5 2 -5 -8 -13 -11 -17 -7 -4 4 -3 12 2 17 16 16
211 -79 207 -99 -2 -6 2 -11 7 -11 6 0 10 5 10 10 0 15 40 -7 63 -34 10 -11
16 -15 12 -9 -4 9 -1 11 10 7 12 -5 13 -9 4 -20 -9 -12 -7 -19 10 -38 11 -12
19 -24 17 -27 -2 -2 6 -4 19 -4 13 0 21 3 18 8 -2 4 -10 7 -18 7 -18 0 -24 22
-11 36 8 8 20 6 46 -9 19 -11 53 -30 75 -42 139 -76 165 -96 161 -120 -3 -14
2 -29 12 -37 13 -11 14 -11 7 2 -13 21 -15 39 -4 46 5 3 9 0 9 -6 0 -6 4 -9 9
-5 5 3 12 1 15 -4 4 -5 1 -13 -5 -17 -8 -5 -9 -3 -4 6 5 9 4 11 -4 6 -19 -12
-2 -27 18 -16 14 7 23 5 35 -9 17 -18 23 -66 7 -57 -5 4 -7 -3 -4 -14 3 -11 8
-18 12 -16 3 2 6 -321 5 -717 0 -766 0 -768 -50 -960 -61 -238 -197 -479 -373
-661 -93 -95 -147 -138 -561 -436 -179 -128 -404 -291 -501 -360 -186 -135
-209 -150 -232 -150 -19 0 -70 36 -619 432 -98 70 -260 187 -360 260 -354 255
-539 484 -652 809 -78 225 -88 362 -84 1195 3 626 4 653 22 673 54 60 660 389
693 377 8 -3 12 -2 9 2 -5 9 188 88 309 126 114 36 255 68 272 62 8 -3 12 -2
9 2 -7 12 135 32 263 39 58 3 107 7 109 8 8 7 205 -7 317 -22z m1029 -378 c-7
-16 -24 -21 -24 -6 0 8 7 13 27 20 1 1 0 -6 -3 -14z m-3379 -1334 c62 -28 130
-94 162 -160 l28 -56 3 -483 3 -483 37 8 c62 13 144 6 207 -17 56 -21 83 -45
427 -388 387 -386 412 -416 444 -536 22 -82 18 -157 -21 -429 -5 -38 -5 -39
24 -32 35 7 87 -13 118 -46 14 -16 34 -71 57 -161 29 -112 33 -142 25 -171
-12 -43 -56 -83 -107 -96 -43 -11 -334 -89 -757 -203 -448 -120 -417 -114
-461 -97 -21 8 -48 29 -60 46 -30 45 -88 273 -80 316 8 42 57 93 97 102 29 7
29 7 29 80 0 87 -19 150 -66 220 -19 28 -129 151 -244 275 -183 195 -216 236
-251 305 -21 44 -44 105 -49 136 -7 36 -9 347 -8 855 l3 799 23 50 c25 55 91
128 137 152 88 47 194 52 280 14z m4370 2 c60 -20 140 -96 175 -168 l25 -50 3
-790 c2 -544 -1 -810 -8 -855 -22 -128 -76 -213 -259 -405 -310 -326 -342
-373 -348 -520 l-4 -90 43 -20 c48 -22 88 -74 88 -114 0 -38 -66 -265 -85
-294 -9 -14 -32 -33 -52 -42 -44 -21 -36 -23 -433 84 -168 46 -421 113 -562
151 -141 38 -265 73 -276 79 -39 21 -62 61 -62 110 1 58 54 258 78 291 27 37
81 62 120 55 l32 -6 -5 38 c-49 340 -46 403 21 534 30 56 87 117 397 425 382
381 398 393 510 415 34 6 70 6 106 -1 30 -5 56 -10 58 -10 2 0 3 205 3 456 0
311 4 470 12 502 23 94 120 211 164 196 14 -4 15 -3 5 4 -10 7 -2 13 30 25 83
30 130 30 224 0z"/>
<path d="M2538 5083 c6 -2 18 -2 25 0 6 3 1 5 -13 5 -14 0 -19 -2 -12 -5z"/>
<path d="M2748 5053 c6 -2 18 -2 25 0 6 3 1 5 -13 5 -14 0 -19 -2 -12 -5z"/>
<path d="M2928 5053 c6 -2 18 -2 25 0 6 3 1 5 -13 5 -14 0 -19 -2 -12 -5z"/>
<path d="M3088 5003 c7 -3 16 -2 19 1 4 3 -2 6 -13 5 -11 0 -14 -3 -6 -6z"/>
<path d="M3106 4981 c-19 -7 -19 -8 2 -13 12 -4 20 -2 17 2 -3 5 1 11 7 13 7
3 9 5 3 6 -5 0 -19 -4 -29 -8z"/>
<path d="M3158 4973 c6 -2 18 -2 25 0 6 3 1 5 -13 5 -14 0 -19 -2 -12 -5z"/>
<path d="M3420 4910 c-8 -5 -12 -12 -9 -15 4 -3 12 1 19 10 14 17 11 19 -10 5z"/>
<path d="M3670 4807 c0 -3 12 -12 26 -22 15 -9 23 -12 20 -6 -7 11 -46 35 -46
28z"/>
<path d="M3710 4750 c0 -12 53 -19 70 -9 8 4 11 9 5 9 -5 1 -25 3 -42 4 -18 2
-33 0 -33 -4z"/>
<path d="M3688 4728 c6 -6 18 -8 28 -6 14 3 12 5 -9 10 -19 3 -25 2 -19 -4z"/>
<path d="M3890 4686 c0 -2 7 -7 16 -10 8 -3 12 -2 9 4 -6 10 -25 14 -25 6z"/>
<path d="M2465 4674 c-366 -35 -690 -146 -1093 -376 l-93 -53 3 -650 4 -650
26 -96 c35 -130 79 -228 144 -326 105 -157 147 -196 494 -445 118 -85 304
-218 413 -296 l197 -143 208 149 c114 83 261 189 327 236 66 48 156 112 200
143 104 74 211 161 256 210 96 101 198 268 230 375 57 188 53 127 56 837 4
624 3 654 -14 670 -11 9 -25 17 -33 19 -8 2 -19 8 -25 14 -7 8 -6 8 4 3 10 -5
12 -4 7 4 -4 6 -11 9 -16 6 -13 -8 -110 43 -110 57 0 6 -3 9 -6 5 -4 -3 -50
16 -103 42 -168 85 -362 163 -478 192 -29 7 -50 15 -48 18 1 3 -7 6 -18 7 -12
1 -77 11 -145 22 -120 21 -309 34 -387 26z m235 -110 c188 -44 352 -184 428
-366 39 -94 52 -172 52 -320 l0 -117 38 -7 c92 -17 169 -83 196 -167 15 -47
16 -113 14 -608 -3 -518 -4 -556 -22 -589 -26 -49 -64 -88 -111 -113 -40 -22
-45 -22 -720 -25 -616 -2 -684 -1 -724 14 -61 23 -115 75 -140 134 -21 50 -22
56 -19 618 3 514 5 570 20 598 38 69 114 124 189 138 l36 6 5 158 c4 137 9
167 32 237 50 147 165 285 296 354 123 66 293 88 430 55z"/>
<path d="M2477 4210 c-49 -15 -115 -73 -144 -125 -25 -46 -28 -60 -31 -187
l-4 -138 262 0 262 0 -4 138 c-3 114 -8 144 -25 177 -25 47 -62 87 -111 117
-39 24 -156 34 -205 18z"/>
<path d="M2515 3241 c-47 -20 -80 -85 -69 -135 4 -17 24 -47 46 -67 43 -39 47
-57 48 -216 0 -56 2 -63 20 -63 18 0 20 7 21 58 3 182 4 184 42 217 65 54 70
130 13 184 -26 25 -89 36 -121 22z"/>
<path d="M4003 4625 c0 -8 4 -12 9 -9 5 3 6 10 3 15 -9 13 -12 11 -12 -6z"/>
<path d="M4013 4598 c-16 -26 -12 -38 8 -27 11 5 25 7 31 3 7 -5 8 -3 3 6 -6
10 -4 12 9 7 10 -4 15 -3 11 4 -4 5 -16 7 -27 3 -14 -4 -18 -2 -14 5 4 6 3 11
-3 11 -5 0 -13 -6 -18 -12z"/>
<path d="M3158 4593 c7 -3 16 -2 19 1 4 3 -2 6 -13 5 -11 0 -14 -3 -6 -6z"/>
<path d="M4090 4576 c0 -2 7 -7 16 -10 8 -3 12 -2 9 4 -6 10 -25 14 -25 6z"/>
<path d="M4060 4540 c0 -5 5 -10 10 -10 6 0 10 5 10 10 0 6 -4 10 -10 10 -5 0
-10 -4 -10 -10z"/>
<path d="M3663 4365 c0 -8 4 -12 9 -9 5 3 6 10 3 15 -9 13 -12 11 -12 -6z"/>
<path d="M3804 4294 c-10 -8 -13 -13 -6 -9 7 4 21 1 30 -7 15 -11 15 -11 5 3
-7 9 -10 19 -6 22 13 13 -4 7 -23 -9z"/>
<path d="M293 3225 c-17 -8 -42 -29 -55 -47 l-23 -33 0 -825 0 -825 35 -62
c23 -41 109 -142 245 -289 116 -124 226 -250 246 -280 45 -68 79 -168 86 -256
3 -38 10 -68 16 -68 5 0 100 24 211 54 111 30 280 76 376 101 96 26 178 50
182 54 4 3 18 92 32 196 27 207 24 261 -14 339 -27 56 -694 724 -747 748 -117
54 -251 -22 -261 -147 -2 -30 -1 -67 3 -82 4 -18 79 -101 210 -233 222 -223
235 -242 195 -293 -16 -21 -30 -27 -58 -27 -35 0 -50 13 -245 207 -247 246
-262 269 -262 403 0 76 4 93 33 151 l32 66 0 522 c0 493 -1 524 -19 559 -36
71 -137 102 -218 67z"/>
<path d="M4675 3226 c-16 -7 -42 -27 -57 -44 l-27 -31 -1 -539 0 -539 29 -56
c16 -31 33 -78 37 -104 8 -57 -8 -151 -36 -207 -12 -23 -111 -131 -228 -248
-178 -180 -211 -208 -237 -208 -63 0 -99 55 -71 108 8 15 98 110 201 211 103
102 193 198 201 213 18 35 20 104 5 150 -13 40 -64 92 -104 107 -42 16 -118
13 -154 -7 -17 -9 -189 -173 -381 -364 -323 -320 -352 -351 -372 -405 -27 -71
-29 -153 -7 -308 9 -60 19 -133 22 -160 l6 -51 92 -23 c51 -13 223 -59 384
-102 160 -44 295 -79 301 -79 5 0 12 31 15 68 3 38 15 97 27 133 38 112 65
146 416 520 94 100 139 162 159 219 12 34 15 177 17 843 3 736 2 805 -14 833
-9 17 -24 36 -32 43 -9 7 -13 17 -10 22 3 5 -1 6 -9 3 -8 -3 -18 -1 -22 5 -9
15 -114 13 -150 -3z"/>
</g>
</svg>
